<?xml version="1.0" encoding="UTF-8"?>
<svg id="Layer_2" data-name="Layer 2" xmlns="http://www.w3.org/2000/svg" xmlns:xlink="http://www.w3.org/1999/xlink" viewBox="0 0 635 375">
  <defs>
    <style>
      .cls-1 {
        fill: #174d75;
      }

      .cls-2 {
        fill: #fff;
        filter: url(#drop-shadow-1);
      }
    </style>
    <filter id="drop-shadow-1" x="0" y="0" width="635" height="375" filterUnits="userSpaceOnUse">
      <feOffset dx="4" dy="4"/>
      <feGaussianBlur result="blur" stdDeviation="8"/>
      <feFlood flood-color="#000" flood-opacity=".5"/>
      <feComposite in2="blur" operator="in"/>
      <feComposite in="SourceGraphic"/>
    </filter>
  </defs>
  <g id="Layer_1-2" data-name="Layer 1">
    <g>
      <path class="cls-2" d="M582.14,67.96c-12-8.42-27.1-12.69-44.89-12.69-5.38,0-10.98.41-16.66,1.22-4.83.69-9.39,1.74-13.61,3.11h-13.04c-3.15-7.12-7.67-11.66-10.9-14.21-7.53-5.94-17.25-8.95-28.92-8.95-4.12,0-8.18.38-12.08,1.14-3.06.6-5.46,1.17-7.55,1.8l-11.02,3.31c-6.14,1.85-10.35,7.5-10.35,13.91h0c-.05,0-.1,0-.16,0-3.97,0-7.82.31-11.43.91-3.33.55-5.99,1.15-8.37,1.86l-8.48,2.55c-6.6-3.53-14.49-5.32-23.54-5.32-3.54,0-6.97.26-10.23.74-2.15-2.44-4.5-4.75-7.09-6.89-13.05-10.84-30.88-16.33-52.99-16.33-6.41,0-12.72.34-18.77,1.02-7.24.82-13.61,2.23-19.47,4.33-6.27,2.16-11.69,5.5-16.13,9.93-.42.42-.84.86-1.24,1.3-2.1-6.21-5.59-11.89-10.33-16.64-8.14-8.13-19.22-12.61-31.2-12.61s-22.73,4.4-30.9,12.4c-1.57,1.54-3.01,3.17-4.3,4.9-5.54-1.76-11.62-2.63-18.44-2.63-4.71,0-9.33.47-13.73,1.39-5.45,1.14-10.37,2.96-14.65,5.4l-5.93,3.39c-2.05-1.61-4.26-3.05-6.62-4.3-7.4-3.89-16.16-5.87-26.05-5.87s-17.77,1.79-24.87,5.48c-7.29,3.8-12.66,8.4-16.43,14.05l-4.34,6.52-.6,7.81c-.45,5.81-.92,12.15-1.42,19.03-.51,7.03-.97,14.19-1.37,21.26-.39,6.93-.77,13.51-1.16,19.72-.39,6.33-.73,11.94-1.01,16.8-.31,5.44-.47,9.57-.47,12.64,0,14.15,6.59,26.25,18.07,33.17.5.3,1.01.56,1.52.84-1.27,4.86-1.94,9.97-1.94,15.26,0,11.82,2.86,22.27,8.51,31.05.2.31.4.61.6.92-6.18,7.46-9.45,16.62-9.45,26.51,0,12.31,5.32,23.76,14.96,32.21,6.62,5.81,14.93,10.1,24.7,12.74,7.87,2.13,16.61,3.21,26,3.21,20.07,0,36.59-4.92,49.13-14.61,3.44,2.51,7.15,4.71,11.13,6.58,10.83,5.11,22.9,7.7,35.87,7.7,7.07,0,13.73-.63,19.84-1.86,2.9,9.03,8.81,16.8,17.18,22.27,5.46,3.6,12.07,6.23,20.2,8.04,6.61,1.47,13.99,2.21,21.92,2.21,11.27,0,21.82-1.83,31.36-5.44,11.61-4.4,21.09-11.48,28.18-21.07,2.23-3.02,4.13-6.25,5.7-9.66,9.38,3.66,20,5.52,31.56,5.52,8.72,0,16.94-.94,24.44-2.79,5.8-1.43,11.15-3.36,15.99-5.73,7.17,4.77,16.03,7.19,26.39,7.19,3.68,0,7.25-.24,10.64-.7,3.6-.5,6.5-1.1,9.14-1.89l20.48-6.14c11.3,6.79,25.21,10.23,41.39,10.23,8.61,0,16.62-.86,23.8-2.55,7.73-1.82,14.61-4.49,20.48-7.94,5.27-2.97,9.81-6.72,13.53-11.15,6-7.16,9.17-16.16,9.17-26.02v-37.82c0-14.77-4.56-27.79-13.04-37.8,1.26-.63,2.49-1.28,3.66-1.97,5.27-2.97,9.82-6.72,13.53-11.15,6-7.16,9.17-16.16,9.17-26.02v-37.82c0-19.83-8.2-36.51-23.1-46.97Z"/>
      <g>
        <g>
          <path class="cls-1" d="M123.4,147.61c-1.22,1-2.86,1.83-4.92,2.5-2.06.67-4.42,1-7.08,1-3.44,0-6.33-.44-8.66-1.33-2.33-.89-3.83-2.39-4.5-4.5-3.78-10.55-6.97-19.33-9.58-26.32-2.61-7-4.64-13.05-6.08-18.16h-.83c-.33,7-.61,13.39-.83,19.16-.22,5.78-.39,11.41-.5,16.91-.11,5.5-.28,11.08-.5,16.74-.22,5.66-.56,11.89-1,18.66-1.22.33-2.86.72-4.92,1.17-2.06.44-4.08.67-6.08.67-4.22,0-7.53-.72-9.91-2.17-2.39-1.44-3.58-3.94-3.58-7.5,0-2.44.14-6.08.42-10.91.28-4.83.61-10.38,1-16.66.39-6.27.78-12.91,1.17-19.91.39-7,.83-13.91,1.33-20.74.5-6.83.97-13.13,1.42-18.91.89-1.33,2.67-2.69,5.33-4.08,2.67-1.39,6.33-2.08,11-2.08,5,0,9.02.81,12.08,2.42,3.05,1.61,5.25,4.25,6.58,7.91,1.67,4,3.44,8.64,5.33,13.91,1.89,5.28,3.75,10.61,5.58,15.99,1.83,5.39,3.52,10.25,5.08,14.58h.83c3.11-9.77,6.3-19.33,9.58-28.66,3.27-9.33,6.08-17.1,8.41-23.33,1.55-.89,3.52-1.58,5.91-2.08,2.39-.5,4.92-.75,7.58-.75,4.77,0,8.64.69,11.58,2.08,2.94,1.39,4.69,3.47,5.25,6.25.44,2.11.92,5.44,1.42,10,.5,4.56,1.03,9.8,1.58,15.75.55,5.94,1.11,12.16,1.67,18.66.55,6.5,1.08,12.83,1.58,18.99s.92,11.69,1.25,16.58c.33,4.89.55,8.78.67,11.66-1.67,1-3.42,1.75-5.25,2.25-1.83.5-4.14.75-6.91.75-3.56,0-6.58-.67-9.08-2-2.5-1.33-3.86-3.89-4.08-7.66-.56-8.66-1-16.91-1.33-24.74-.33-7.83-.58-15-.75-21.49s-.36-12.08-.58-16.74h-.83c-1.44,4.78-3.47,10.8-6.08,18.08-2.61,7.28-5.86,16.64-9.75,28.07Z"/>
          <g>
            <path class="cls-1" d="M196.71,83.3c4.11,0,7.44-1.33,10-4,2.55-2.67,3.83-5.83,3.83-9.5s-1.28-6.94-3.83-9.5c-2.56-2.55-5.89-3.83-10-3.83s-7.3,1.28-9.91,3.83c-2.61,2.56-3.92,5.72-3.92,9.5s1.3,6.83,3.92,9.5c2.61,2.67,5.92,4,9.91,4Z"/>
            <path class="cls-1" d="M205.87,94.71c-2.11-1.61-5.56-2.42-10.33-2.42-2.33,0-4.53.17-6.58.5-2.06.33-3.58.67-4.58,1v68.64c0,4.33,1.08,7.33,3.25,9,2.17,1.67,5.64,2.5,10.41,2.5,2.33,0,4.5-.14,6.5-.42,2-.28,3.5-.58,4.5-.92v-68.64c0-4.55-1.06-7.64-3.17-9.25Z"/>
          </g>
          <path class="cls-1" d="M337.66,156.86c-2-2.72-4.25-5.69-6.75-8.91-2.5-3.22-5.11-6.55-7.83-10-1.09-1.37-2.15-2.76-3.21-4.15,5.74-2.9,10.31-6.81,13.7-11.76,3.61-5.27,5.41-11.25,5.41-17.91,0-10.77-3.78-19.3-11.33-25.58-7.55-6.27-18.83-9.41-33.82-9.41-5.33,0-10.47.28-15.41.83-4.94.56-9.25,1.5-12.91,2.83-2,.67-3.61,1.61-4.83,2.83s-1.83,2.89-1.83,5v81.31c0,4.44,1.03,7.55,3.08,9.33,2.05,1.78,5.58,2.67,10.58,2.67,2.33,0,4.61-.14,6.83-.42,2.22-.28,3.83-.58,4.83-.92v-33.82h12.23l16.59,25.49c1.89,3,3.92,5.41,6.08,7.25,2.17,1.83,5.3,2.75,9.41,2.75,3.22,0,6.11-.92,8.66-2.75,2.55-1.83,4.33-4.42,5.33-7.75-1.22-1.89-2.83-4.19-4.83-6.91ZM284.01,90.46c1.44-.33,2.94-.55,4.5-.67,1.55-.11,3.27-.17,5.17-.17,6.66,0,11.61,1.25,14.83,3.75,3.22,2.5,4.83,6.14,4.83,10.91s-1.69,8.58-5.08,11.08c-3.39,2.5-7.86,3.75-13.41,3.75h-10.83v-28.66Z"/>
          <path class="cls-1" d="M426.38,94.04c-2.17-1.61-5.64-2.42-10.41-2.42-2.33,0-4.5.17-6.5.5-2,.33-3.56.67-4.67,1v60.15c-1,.56-2.5,1.11-4.5,1.67-2,.56-4.5.83-7.5.83-4.78,0-8.47-1.11-11.08-3.33-2.61-2.22-3.92-5.89-3.92-11v-38.15c0-4.55-1.08-7.64-3.25-9.25-2.17-1.61-5.64-2.42-10.41-2.42-2.33,0-4.5.17-6.5.5-2,.33-3.5.67-4.5,1v48.48c0,7.89,1.64,14.3,4.92,19.24,3.27,4.94,7.89,8.58,13.83,10.91,5.94,2.33,12.86,3.5,20.74,3.5,6.33,0,12.08-.64,17.24-1.92,5.17-1.28,9.52-3.02,13.08-5.25,2.33-1.44,4.03-3.11,5.08-5,1.05-1.89,1.58-4.17,1.58-6.83v-52.98c0-4.55-1.08-7.64-3.25-9.25Z"/>
          <path class="cls-1" d="M492.44,153.61c-1.33.56-2.97,1.03-4.92,1.42-1.95.39-3.75.58-5.42.58-3.67,0-6.5-.72-8.5-2.17-2-1.44-3-3.72-3-6.83v-32.99h17.33c2.55,0,4.58-.78,6.08-2.33,1.5-1.55,2.25-4,2.25-7.33,0-2-.28-3.83-.83-5.5-.56-1.67-1.11-2.94-1.67-3.83h-23.16v-11.5c0-4.44-1.06-7.5-3.17-9.16-2.11-1.67-5.56-2.5-10.33-2.5-2.22,0-4.33.2-6.33.58-2,.39-3.56.75-4.67,1.08v75.14c0,9.55,2.58,16.44,7.75,20.66,5.17,4.22,12.41,6.33,21.74,6.33,7.33,0,12.55-1.22,15.66-3.67,3.11-2.44,4.67-5.55,4.67-9.33,0-1.89-.36-3.55-1.08-5-.72-1.44-1.53-2.67-2.42-3.67Z"/>
          <path class="cls-1" d="M540.26,90.29c11.55,0,20.77,2.42,27.66,7.25,6.89,4.83,10.33,12.3,10.33,22.41v37.82c0,2.78-.72,5.03-2.17,6.75-1.44,1.72-3.28,3.19-5.5,4.42-3.33,2-7.47,3.58-12.41,4.75-4.94,1.17-10.58,1.75-16.91,1.75-11.33,0-20.36-2.22-27.08-6.66-6.72-4.44-10.08-11.05-10.08-19.83,0-7.55,2.33-13.35,7-17.41,4.67-4.05,11.61-6.52,20.83-7.41l22.16-2.33v-2c0-3.77-1.47-6.5-4.42-8.16-2.94-1.67-7.14-2.5-12.58-2.5-4.22,0-8.36.5-12.41,1.5-4.06,1-7.69,2.17-10.91,3.5-1.33-.89-2.47-2.25-3.42-4.08-.94-1.83-1.42-3.75-1.42-5.75,0-4.67,2.55-8.05,7.66-10.16,3.22-1.33,6.97-2.3,11.25-2.92,4.27-.61,8.41-.92,12.41-.92ZM541.26,156.94c2.55,0,5.08-.25,7.58-.75,2.5-.5,4.3-1.08,5.41-1.75v-16l-14,1.33c-3.78.22-6.78,1-9,2.33-2.22,1.33-3.33,3.33-3.33,6s1.05,4.81,3.17,6.41c2.11,1.61,5.5,2.42,10.16,2.42Z"/>
        </g>
        <g>
          <path class="cls-1" d="M106.57,269.7c6,0,10.3-1.08,12.91-3.25,2.61-2.17,3.92-4.75,3.92-7.75,0-2.78-1.03-5.02-3.08-6.75-2.06-1.72-5.08-3.19-9.08-4.42l-8.83-2.83c-6-2-11.3-4.22-15.91-6.66-4.61-2.44-8.16-5.61-10.66-9.5-2.5-3.89-3.75-8.83-3.75-14.83,0-9.22,3.5-16.55,10.5-21.99,7-5.44,16.72-8.16,29.16-8.16,6.33,0,11.97.61,16.91,1.83,4.94,1.22,8.83,3.03,11.66,5.42,2.83,2.39,4.25,5.31,4.25,8.75,0,2.56-.58,4.75-1.75,6.58-1.17,1.83-2.64,3.42-4.42,4.75-2.56-1.78-5.94-3.3-10.16-4.58-4.22-1.28-8.89-1.92-14-1.92s-9.33.86-12,2.58c-2.67,1.72-4,3.97-4,6.75,0,2.22.89,4.03,2.67,5.42,1.78,1.39,4.44,2.64,8,3.75l9.16,2.83c10.11,3.11,17.88,7.25,23.33,12.41,5.44,5.17,8.16,12.08,8.16,20.74,0,9.33-3.61,16.91-10.83,22.74-7.22,5.83-17.66,8.75-31.32,8.75-6.78,0-12.83-.72-18.16-2.17s-9.58-3.55-12.75-6.33c-3.17-2.77-4.75-6-4.75-9.66,0-2.89.86-5.36,2.58-7.41,1.72-2.05,3.64-3.58,5.75-4.58,3,2.44,6.75,4.64,11.25,6.58,4.5,1.94,9.58,2.92,15.25,2.92Z"/>
          <path class="cls-1" d="M234.69,248.04c1.89-1.78,2.83-4.39,2.83-7.83,0-6.89-1.61-12.94-4.83-18.16-3.22-5.22-7.69-9.36-13.41-12.41-5.72-3.05-12.41-4.58-20.08-4.58-5.22,0-10.25.83-15.08,2.5-4.83,1.67-9.16,4.19-13,7.58-3.83,3.39-6.89,7.69-9.16,12.91-2.28,5.22-3.42,11.39-3.42,18.49,0,9.66,1.94,17.72,5.83,24.16,3.89,6.44,9.25,11.27,16.08,14.5s14.52,4.83,23.08,4.83c5.89,0,11.13-.56,15.74-1.67,4.61-1.11,8.22-2.77,10.83-5,2.61-2.22,3.92-5,3.92-8.33,0-2-.53-3.89-1.58-5.66-1.06-1.78-2.42-3.17-4.08-4.17-2.56,1.44-5.89,2.83-10,4.17-4.11,1.33-8.5,2-13.16,2-5.78,0-10.78-1.3-15-3.92-3.37-2.08-5.7-5.31-7.01-9.62l43.67-6.45c3.33-.44,5.94-1.55,7.83-3.33ZM181.66,241.16c.47-5.39,2.2-9.63,5.21-12.7,3.33-3.39,7.5-5.08,12.5-5.08s8.39,1.33,10.83,4c2.44,2.67,3.77,5.56,4,8.66l-32.54,5.12Z"/>
          <path class="cls-1" d="M321.66,217.46c-1.22-1.83-2.83-3.42-4.83-4.75-2.89-1.89-6.91-3.64-12.08-5.25-5.17-1.61-10.75-2.42-16.74-2.42-8.33,0-15.66,1.53-21.99,4.58-6.33,3.06-11.25,7.55-14.75,13.5-3.5,5.94-5.25,13.3-5.25,22.08,0,9.44,1.69,17.08,5.08,22.91,3.39,5.83,7.89,10,13.5,12.5,5.61,2.5,11.69,3.75,18.24,3.75,4.77,0,8.83-.5,12.16-1.5,1.89-.57,3.6-1.21,5.17-1.92v5.75c0,5.11-1.83,8.8-5.5,11.08-3.67,2.28-8.61,3.42-14.83,3.42-4.56,0-8.89-.64-13-1.92-4.11-1.28-7.66-2.81-10.66-4.58-1.33.89-2.47,2.25-3.42,4.08-.94,1.83-1.42,3.92-1.42,6.25,0,4.44,1.89,7.89,5.66,10.33,2.33,1.55,5.75,2.83,10.25,3.83,4.5,1,9.63,1.5,15.41,1.5,7.66,0,14.58-1.17,20.74-3.5,6.16-2.33,11.05-5.94,14.66-10.83,3.61-4.89,5.42-11.22,5.42-18.99v-62.98c0-2.77-.61-5.08-1.83-6.91ZM287.34,265.7c-4.78,0-8.75-1.47-11.91-4.42-3.17-2.94-4.75-8.3-4.75-16.08,0-7.11,1.69-12.33,5.08-15.66,3.39-3.33,7.75-5,13.08-5,2.55,0,4.69.28,6.41.83,1.72.56,3.19,1.17,4.42,1.83v34.71c-.99.65-2.04,1.27-3.17,1.86-2.44,1.28-5.5,1.92-9.16,1.92Z"/>
          <path class="cls-1" d="M413.21,208.8c-2.17-1.61-5.64-2.42-10.41-2.42-2.33,0-4.5.17-6.5.5-2,.33-3.56.67-4.67,1v60.15c-1,.56-2.5,1.11-4.5,1.67-2,.56-4.5.83-7.5.83-4.78,0-8.47-1.11-11.08-3.33-2.61-2.22-3.92-5.89-3.92-11v-38.15c0-4.55-1.08-7.64-3.25-9.25-2.17-1.61-5.64-2.42-10.41-2.42-2.33,0-4.5.17-6.5.5-2,.33-3.5.67-4.5,1v48.48c0,7.89,1.64,14.3,4.92,19.24,3.27,4.94,7.89,8.58,13.83,10.91,5.94,2.33,12.86,3.5,20.74,3.5,6.33,0,12.08-.64,17.24-1.92,5.17-1.28,9.52-3.02,13.08-5.25,2.33-1.44,4.02-3.11,5.08-5,1.05-1.89,1.58-4.17,1.58-6.83v-52.98c0-4.55-1.08-7.64-3.25-9.25Z"/>
          <path class="cls-1" d="M470.78,205.22c-5.67,0-11.08.64-16.25,1.92-5.17,1.28-9.58,3.03-13.25,5.25-2.67,1.67-4.75,3.58-6.25,5.75-1.5,2.17-2.25,4.81-2.25,7.91v51.15c0,4.33,1.08,7.33,3.25,9s5.58,2.5,10.25,2.5c2.33,0,4.5-.14,6.5-.42,2-.28,3.55-.58,4.67-.92v-58.31c2.33-1.33,5.17-2.39,8.5-3.17,3.33-.78,6.66-1.17,10-1.17,1.89,0,3.64.08,5.25.25,1.61.17,2.97.36,4.08.58.67-1.11,1.25-2.44,1.75-4,.5-1.55.75-3.22.75-5,0-7.55-5.67-11.33-16.99-11.33Z"/>
          <path class="cls-1" d="M526.92,205.05c11.55,0,20.77,2.42,27.66,7.25,6.89,4.83,10.33,12.3,10.33,22.41v37.82c0,2.78-.72,5.03-2.17,6.75-1.44,1.72-3.28,3.19-5.5,4.42-3.33,2-7.47,3.58-12.41,4.75-4.94,1.17-10.58,1.75-16.91,1.75-11.33,0-20.36-2.22-27.07-6.66-6.72-4.44-10.08-11.05-10.08-19.83,0-7.55,2.33-13.35,7-17.41,4.67-4.05,11.6-6.52,20.83-7.41l22.16-2.33v-2c0-3.77-1.47-6.5-4.42-8.16-2.94-1.67-7.14-2.5-12.58-2.5-4.22,0-8.36.5-12.41,1.5-4.06,1-7.69,2.17-10.91,3.5-1.33-.89-2.47-2.25-3.42-4.08-.94-1.83-1.42-3.75-1.42-5.75,0-4.67,2.55-8.05,7.66-10.16,3.22-1.33,6.97-2.3,11.25-2.92,4.27-.61,8.41-.92,12.41-.92ZM527.92,271.7c2.55,0,5.08-.25,7.58-.75,2.5-.5,4.3-1.08,5.41-1.75v-16l-14,1.33c-3.78.22-6.78,1-9,2.33-2.22,1.33-3.33,3.33-3.33,6s1.05,4.81,3.17,6.41c2.11,1.61,5.5,2.42,10.16,2.42Z"/>
        </g>
      </g>
    </g>
  </g>
</svg>