<?xml version="1.0" encoding="UTF-8"?>
<svg id="Layer_2" data-name="Layer 2" xmlns="http://www.w3.org/2000/svg" xmlns:xlink="http://www.w3.org/1999/xlink" viewBox="0 0 292.49 154">
  <defs>
    <style>
      .cls-1 {
        fill: #fd932b;
      }

      .cls-2 {
        fill: #174d75;
      }

      .cls-3 {
        filter: url(#drop-shadow-1);
      }

      .cls-3, .cls-4 {
        fill: #fff;
      }

      .cls-4 {
        filter: url(#drop-shadow-2);
      }
    </style>
    <filter id="drop-shadow-1" x="93.49" y="22.62" width="199" height="109" filterUnits="userSpaceOnUse">
      <feOffset dx="1.15" dy="1.15"/>
      <feGaussianBlur result="blur" stdDeviation="2.3"/>
      <feFlood flood-color="#000" flood-opacity=".5"/>
      <feComposite in2="blur" operator="in"/>
      <feComposite in="SourceGraphic"/>
    </filter>
    <filter id="drop-shadow-2" x="0" y="0" width="134" height="154" filterUnits="userSpaceOnUse">
      <feOffset dx="1.05" dy="1.05"/>
      <feGaussianBlur result="blur-2" stdDeviation="2.1"/>
      <feFlood flood-color="#000" flood-opacity=".5"/>
      <feComposite in2="blur-2" operator="in"/>
      <feComposite in="SourceGraphic"/>
    </filter>
  </defs>
  <g id="Layer_1-2" data-name="Layer 1">
    <g>
      <g>
        <path class="cls-3" d="M277.47,42.6c-3.45-2.42-7.79-3.65-12.91-3.65-1.55,0-3.16.12-4.79.35-1.39.2-2.7.5-3.91.9h-3.75c-.91-2.05-2.21-3.35-3.13-4.09-2.16-1.71-4.96-2.57-8.31-2.57-1.19,0-2.35.11-3.47.33-.88.17-1.57.34-2.17.52l-3.17.95c-1.77.53-2.98,2.16-2.98,4h0s-.03,0-.04,0c-1.14,0-2.25.09-3.29.26-.96.16-1.72.33-2.41.53l-2.44.73c-1.9-1.02-4.17-1.53-6.77-1.53-1.02,0-2,.07-2.94.21-.62-.7-1.29-1.36-2.04-1.98-3.75-3.12-8.88-4.7-15.24-4.7-1.84,0-3.66.1-5.4.29-2.08.23-3.91.64-5.6,1.24-1.8.62-3.36,1.58-4.64,2.86-.12.12-.24.25-.36.37-.6-1.79-1.61-3.42-2.97-4.78-2.34-2.34-5.53-3.63-8.97-3.63s-6.54,1.27-8.89,3.56c-.45.44-.86.91-1.24,1.41-1.59-.51-3.34-.76-5.3-.76-1.36,0-2.68.13-3.95.4-1.57.33-2.98.85-4.21,1.55l-1.7.97c-.59-.46-1.23-.88-1.9-1.24-2.13-1.12-4.65-1.69-7.49-1.69-2.23,0-4.17.34-5.9,1.02h-21.07c-2.52,0-4.58,2.06-4.58,4.58v71.64c0,2.52,2.06,4.58,4.58,4.58h29.64c1.41,0,2.68-.65,3.52-1.66.92.08,1.86.12,2.82.12,5.77,0,10.52-1.42,14.13-4.2.99.72,2.06,1.35,3.2,1.89,3.11,1.47,6.58,2.21,10.31,2.21,2.03,0,3.95-.18,5.71-.53.83,2.6,2.53,4.83,4.94,6.4,1.57,1.03,3.47,1.79,5.81,2.31,1.9.42,4.02.64,6.3.64,3.24,0,6.27-.53,9.02-1.56,3.34-1.26,6.06-3.3,8.1-6.06.64-.87,1.19-1.8,1.64-2.78,2.7,1.05,5.75,1.59,9.07,1.59,2.51,0,4.87-.27,7.03-.8,1.67-.41,3.2-.97,4.6-1.65,2.06,1.37,4.61,2.07,7.59,2.07,1.06,0,2.08-.07,3.06-.2,1.04-.14,1.87-.32,2.63-.54l5.89-1.76c3.25,1.95,7.25,2.94,11.9,2.94,2.48,0,4.78-.25,6.84-.73,2.22-.52,4.2-1.29,5.89-2.28,1.51-.85,2.82-1.93,3.89-3.21,1.73-2.06,2.64-4.65,2.64-7.48v-10.87c0-4.25-1.31-7.99-3.75-10.87.36-.18.72-.37,1.05-.57,1.51-.85,2.82-1.93,3.89-3.21,1.73-2.06,2.64-4.65,2.64-7.48v-10.87c0-5.7-2.36-10.5-6.64-13.5Z"/>
        <g>
          <g>
            <path class="cls-2" d="M145.57,65.5c-.35.29-.82.53-1.41.72-.59.19-1.27.29-2.04.29-.99,0-1.82-.13-2.49-.38-.67-.26-1.1-.69-1.29-1.29-1.09-3.03-2-5.56-2.75-7.57-.75-2.01-1.33-3.75-1.75-5.22h-.24c-.1,2.01-.18,3.85-.24,5.51-.06,1.66-.11,3.28-.14,4.86-.03,1.58-.08,3.19-.14,4.81-.06,1.63-.16,3.42-.29,5.37-.35.1-.82.21-1.41.34-.59.13-1.17.19-1.75.19-1.21,0-2.16-.21-2.85-.62-.69-.41-1.03-1.13-1.03-2.16,0-.7.04-1.75.12-3.14.08-1.39.18-2.99.29-4.79.11-1.8.22-3.71.34-5.72.11-2.01.24-4,.38-5.96.14-1.96.28-3.78.41-5.44.26-.38.77-.77,1.53-1.17.77-.4,1.82-.6,3.16-.6,1.44,0,2.59.23,3.47.69.88.46,1.51,1.22,1.89,2.28.48,1.15.99,2.48,1.53,4,.54,1.52,1.08,3.05,1.6,4.6.53,1.55,1.01,2.95,1.46,4.19h.24c.89-2.81,1.81-5.56,2.75-8.24.94-2.68,1.75-4.92,2.42-6.71.45-.26,1.01-.46,1.7-.6.69-.14,1.41-.22,2.18-.22,1.37,0,2.48.2,3.33.6.85.4,1.35,1,1.51,1.8.13.61.26,1.57.41,2.87.14,1.31.29,2.82.46,4.53.16,1.71.32,3.5.48,5.37.16,1.87.31,3.69.46,5.46s.26,3.36.36,4.77c.1,1.41.16,2.52.19,3.35-.48.29-.98.5-1.51.65-.53.14-1.19.22-1.99.22-1.02,0-1.89-.19-2.61-.57-.72-.38-1.11-1.12-1.17-2.2-.16-2.49-.29-4.86-.38-7.11-.1-2.25-.17-4.31-.22-6.18-.05-1.87-.1-3.47-.17-4.81h-.24c-.42,1.37-1,3.11-1.75,5.2-.75,2.09-1.68,4.78-2.8,8.07Z"/>
            <g>
              <path class="cls-2" d="M166.65,47.01c1.18,0,2.14-.38,2.87-1.15.73-.77,1.1-1.68,1.1-2.73s-.37-2-1.1-2.73c-.73-.73-1.69-1.1-2.87-1.1s-2.1.37-2.85,1.1c-.75.74-1.13,1.65-1.13,2.73s.37,1.96,1.13,2.73c.75.77,1.7,1.15,2.85,1.15Z"/>
              <path class="cls-2" d="M169.29,50.29c-.61-.46-1.6-.69-2.97-.69-.67,0-1.3.05-1.89.14-.59.1-1.03.19-1.32.29v19.74c0,1.25.31,2.11.93,2.59.62.48,1.62.72,2.99.72.67,0,1.29-.04,1.87-.12.57-.08,1.01-.17,1.29-.26v-19.74c0-1.31-.3-2.2-.91-2.66Z"/>
            </g>
            <path class="cls-2" d="M207.18,68.16c-.57-.78-1.22-1.64-1.94-2.56-.72-.93-1.47-1.88-2.25-2.87-.31-.39-.62-.79-.92-1.19,1.65-.83,2.97-1.96,3.94-3.38,1.04-1.52,1.56-3.23,1.56-5.15,0-3.1-1.09-5.55-3.26-7.35-2.17-1.8-5.41-2.71-9.72-2.71-1.53,0-3.01.08-4.43.24-1.42.16-2.66.43-3.71.81-.57.19-1.04.46-1.39.81s-.53.83-.53,1.44v23.38c0,1.28.29,2.17.89,2.68.59.51,1.6.77,3.04.77.67,0,1.32-.04,1.96-.12.64-.08,1.1-.17,1.39-.26v-9.72h3.52l4.77,7.33c.54.86,1.13,1.56,1.75,2.08.62.53,1.52.79,2.71.79.93,0,1.76-.26,2.49-.79.73-.53,1.25-1.27,1.53-2.23-.35-.54-.81-1.21-1.39-1.99ZM191.75,49.07c.41-.1.85-.16,1.29-.19.45-.03.94-.05,1.49-.05,1.92,0,3.34.36,4.26,1.08.93.72,1.39,1.77,1.39,3.14s-.49,2.47-1.46,3.19c-.97.72-2.26,1.08-3.86,1.08h-3.11v-8.24Z"/>
            <path class="cls-2" d="M232.69,50.1c-.62-.46-1.62-.69-2.99-.69-.67,0-1.29.05-1.87.14-.57.1-1.02.19-1.34.29v17.29c-.29.16-.72.32-1.29.48-.58.16-1.29.24-2.16.24-1.37,0-2.44-.32-3.19-.96-.75-.64-1.13-1.69-1.13-3.16v-10.97c0-1.31-.31-2.2-.93-2.66-.62-.46-1.62-.69-2.99-.69-.67,0-1.29.05-1.87.14-.57.1-1.01.19-1.29.29v13.94c0,2.27.47,4.11,1.41,5.53.94,1.42,2.27,2.47,3.98,3.14,1.71.67,3.7,1.01,5.96,1.01,1.82,0,3.47-.18,4.96-.55,1.49-.37,2.74-.87,3.76-1.51.67-.41,1.16-.89,1.46-1.44.3-.54.46-1.2.46-1.96v-15.23c0-1.31-.31-2.2-.93-2.66Z"/>
            <path class="cls-2" d="M251.68,67.23c-.38.16-.85.3-1.41.41-.56.11-1.08.17-1.56.17-1.05,0-1.87-.21-2.44-.62-.58-.41-.86-1.07-.86-1.96v-9.49h4.98c.73,0,1.32-.22,1.75-.67.43-.45.65-1.15.65-2.11,0-.57-.08-1.1-.24-1.58-.16-.48-.32-.85-.48-1.1h-6.66v-3.31c0-1.28-.3-2.16-.91-2.63-.61-.48-1.6-.72-2.97-.72-.64,0-1.25.06-1.82.17-.57.11-1.02.22-1.34.31v21.6c0,2.75.74,4.73,2.23,5.94,1.49,1.21,3.57,1.82,6.25,1.82,2.11,0,3.61-.35,4.5-1.05.89-.7,1.34-1.6,1.34-2.68,0-.54-.1-1.02-.31-1.44-.21-.41-.44-.77-.69-1.05Z"/>
            <path class="cls-2" d="M265.43,49.02c3.32,0,5.97.69,7.95,2.08,1.98,1.39,2.97,3.54,2.97,6.44v10.87c0,.8-.21,1.45-.62,1.94-.42.5-.94.92-1.58,1.27-.96.57-2.15,1.03-3.57,1.37-1.42.34-3.04.5-4.86.5-3.26,0-5.85-.64-7.78-1.92-1.93-1.28-2.9-3.18-2.9-5.7,0-2.17.67-3.84,2.01-5.01,1.34-1.17,3.34-1.88,5.99-2.13l6.37-.67v-.57c0-1.09-.42-1.87-1.27-2.35-.85-.48-2.05-.72-3.62-.72-1.21,0-2.4.14-3.57.43-1.17.29-2.21.62-3.14,1.01-.38-.26-.71-.65-.98-1.17-.27-.53-.41-1.08-.41-1.65,0-1.34.73-2.32,2.2-2.92.93-.38,2-.66,3.23-.84,1.23-.18,2.42-.26,3.57-.26ZM265.72,68.19c.73,0,1.46-.07,2.18-.22.72-.14,1.24-.31,1.56-.5v-4.6l-4.02.38c-1.09.06-1.95.29-2.59.67-.64.38-.96.96-.96,1.72s.3,1.38.91,1.84c.61.46,1.58.69,2.92.69Z"/>
          </g>
          <g>
            <path class="cls-2" d="M140.73,100.61c1.72,0,2.96-.31,3.71-.93.75-.62,1.13-1.37,1.13-2.23,0-.8-.3-1.44-.89-1.94-.59-.49-1.46-.92-2.61-1.27l-2.54-.81c-1.72-.57-3.25-1.21-4.57-1.92-1.33-.7-2.35-1.61-3.07-2.73-.72-1.12-1.08-2.54-1.08-4.26,0-2.65,1.01-4.76,3.02-6.32,2.01-1.56,4.81-2.35,8.38-2.35,1.82,0,3.44.18,4.86.53,1.42.35,2.54.87,3.35,1.56.81.69,1.22,1.53,1.22,2.51,0,.74-.17,1.37-.5,1.89-.34.53-.76.98-1.27,1.37-.73-.51-1.71-.95-2.92-1.32-1.21-.37-2.56-.55-4.02-.55s-2.68.25-3.45.74c-.77.5-1.15,1.14-1.15,1.94,0,.64.26,1.16.77,1.56.51.4,1.28.76,2.3,1.08l2.63.81c2.91.89,5.14,2.08,6.71,3.57,1.56,1.49,2.35,3.47,2.35,5.96,0,2.68-1.04,4.86-3.11,6.54-2.08,1.68-5.08,2.51-9.01,2.51-1.95,0-3.69-.21-5.22-.62s-2.75-1.02-3.66-1.82c-.91-.8-1.37-1.72-1.37-2.78,0-.83.25-1.54.74-2.13.49-.59,1.05-1.03,1.65-1.32.86.7,1.94,1.33,3.23,1.89,1.29.56,2.75.84,4.38.84Z"/>
            <path class="cls-2" d="M177.57,94.38c.54-.51.81-1.26.81-2.25,0-1.98-.46-3.72-1.39-5.22-.93-1.5-2.21-2.69-3.86-3.57-1.65-.88-3.57-1.32-5.77-1.32-1.5,0-2.95.24-4.34.72-1.39.48-2.63,1.21-3.74,2.18-1.1.97-1.98,2.21-2.63,3.71-.65,1.5-.98,3.27-.98,5.32,0,2.78.56,5.09,1.68,6.95,1.12,1.85,2.66,3.24,4.62,4.17s4.18,1.39,6.63,1.39c1.69,0,3.2-.16,4.53-.48,1.32-.32,2.36-.8,3.11-1.44.75-.64,1.13-1.44,1.13-2.4,0-.57-.15-1.12-.46-1.63-.3-.51-.69-.91-1.17-1.2-.74.42-1.69.81-2.87,1.2-1.18.38-2.44.57-3.78.57-1.66,0-3.1-.38-4.31-1.13-.97-.6-1.64-1.53-2.02-2.77l12.56-1.86c.96-.13,1.71-.45,2.25-.96ZM162.32,92.4c.13-1.55.63-2.77,1.5-3.65.96-.97,2.16-1.46,3.59-1.46s2.41.38,3.11,1.15c.7.77,1.09,1.6,1.15,2.49l-9.36,1.47Z"/>
            <path class="cls-2" d="M202.58,85.59c-.35-.53-.81-.98-1.39-1.37-.83-.54-1.99-1.05-3.47-1.51-1.49-.46-3.09-.69-4.81-.69-2.4,0-4.5.44-6.32,1.32-1.82.88-3.23,2.17-4.24,3.88-1.01,1.71-1.51,3.82-1.51,6.35,0,2.71.49,4.91,1.46,6.59.97,1.68,2.27,2.87,3.88,3.59,1.61.72,3.36,1.08,5.25,1.08,1.37,0,2.54-.14,3.5-.43.54-.16,1.03-.35,1.49-.55v1.65c0,1.47-.53,2.53-1.58,3.19-1.05.65-2.48.98-4.26.98-1.31,0-2.56-.18-3.74-.55-1.18-.37-2.2-.81-3.07-1.32-.38.26-.71.65-.98,1.17-.27.53-.41,1.13-.41,1.8,0,1.28.54,2.27,1.63,2.97.67.45,1.65.81,2.95,1.1,1.29.29,2.77.43,4.43.43,2.2,0,4.19-.34,5.96-1.01,1.77-.67,3.18-1.71,4.22-3.11,1.04-1.41,1.56-3.23,1.56-5.46v-18.11c0-.8-.18-1.46-.53-1.99ZM192.71,99.46c-1.37,0-2.51-.42-3.43-1.27-.91-.85-1.37-2.39-1.37-4.62,0-2.04.49-3.55,1.46-4.5.97-.96,2.23-1.44,3.76-1.44.73,0,1.35.08,1.84.24.49.16.92.34,1.27.53v9.98c-.28.19-.59.37-.91.54-.7.37-1.58.55-2.63.55Z"/>
            <path class="cls-2" d="M228.9,83.1c-.62-.46-1.62-.69-2.99-.69-.67,0-1.29.05-1.87.14-.57.1-1.02.19-1.34.29v17.29c-.29.16-.72.32-1.29.48-.57.16-1.29.24-2.16.24-1.37,0-2.44-.32-3.19-.96-.75-.64-1.13-1.69-1.13-3.16v-10.97c0-1.31-.31-2.2-.93-2.66-.62-.46-1.62-.69-2.99-.69-.67,0-1.29.05-1.87.14-.57.1-1.01.19-1.29.29v13.94c0,2.27.47,4.11,1.41,5.53.94,1.42,2.27,2.47,3.98,3.14,1.71.67,3.7,1.01,5.96,1.01,1.82,0,3.47-.18,4.96-.55,1.49-.37,2.74-.87,3.76-1.51.67-.41,1.16-.89,1.46-1.44.3-.54.46-1.2.46-1.96v-15.23c0-1.31-.31-2.2-.93-2.66Z"/>
            <path class="cls-2" d="M245.45,82.07c-1.63,0-3.19.18-4.67.55-1.49.37-2.75.87-3.81,1.51-.77.48-1.37,1.03-1.8,1.65-.43.62-.65,1.38-.65,2.28v14.71c0,1.25.31,2.11.93,2.59s1.6.72,2.95.72c.67,0,1.29-.04,1.87-.12.57-.08,1.02-.17,1.34-.26v-16.77c.67-.38,1.49-.69,2.44-.91.96-.22,1.92-.34,2.87-.34.54,0,1.05.02,1.51.07.46.05.85.1,1.17.17.19-.32.36-.7.5-1.15.14-.45.22-.93.22-1.44,0-2.17-1.63-3.26-4.89-3.26Z"/>
            <path class="cls-2" d="M261.6,82.02c3.32,0,5.97.69,7.95,2.08,1.98,1.39,2.97,3.54,2.97,6.44v10.87c0,.8-.21,1.45-.62,1.94-.42.5-.94.92-1.58,1.27-.96.57-2.15,1.03-3.57,1.37-1.42.34-3.04.5-4.86.5-3.26,0-5.85-.64-7.78-1.92-1.93-1.28-2.9-3.18-2.9-5.7,0-2.17.67-3.84,2.01-5.01,1.34-1.17,3.34-1.88,5.99-2.13l6.37-.67v-.57c0-1.09-.42-1.87-1.27-2.35-.85-.48-2.05-.72-3.62-.72-1.21,0-2.4.14-3.57.43-1.17.29-2.21.62-3.14,1.01-.38-.26-.71-.65-.98-1.17-.27-.53-.41-1.08-.41-1.65,0-1.34.73-2.32,2.2-2.92.93-.38,2-.66,3.23-.84,1.23-.18,2.42-.26,3.57-.26ZM261.88,101.18c.73,0,1.46-.07,2.18-.22.72-.14,1.24-.31,1.56-.5v-4.6l-4.02.38c-1.09.06-1.95.29-2.59.67-.64.38-.96.96-.96,1.72s.3,1.38.91,1.84c.61.46,1.58.69,2.92.69Z"/>
          </g>
        </g>
      </g>
      <g>
        <path class="cls-4" d="M74.54,145.14c-.74,0-1.5,0-2.25-.03l-30.08-1.19-1.02-.41c-.05-.01-.11-.03-.16-.05-.06-.02-.13-.03-.2-.05-.07-.02-.14-.04-.21-.05l-.31-.02-.71-.18c-6.13-1.6-11.6-4.38-15.82-8.07-3.92-3.42-6.78-7.64-8.41-12.36-1.83-1.07-3.41-2.45-4.7-4.1-.5-.64-.96-1.32-1.37-2.03-.38-.67-.73-1.38-1.04-2.12-.28-.69-.53-1.41-.75-2.15-.07-.24-.13-.48-.19-.72-.17-.69-.31-1.41-.42-2.14-.03-.24-.07-.48-.09-.72-.13-1.11-.19-2.29-.17-3.49,0-.72.02-1.48.04-2.27v-.06c.02-.76.04-1.56.06-2.38.04-1.31.09-2.62.15-3.89.11-2.32.24-4.51.4-6.51.14-1.79.3-3.43.47-4.87.24-2.03.73-3.94,1.45-5.68.28-.67.59-1.32.94-1.94.17-.3.32-.56.48-.81.73-1.13,1.58-2.16,2.55-3.06.75-.69,1.56-1.3,2.42-1.83.06-.58.21-2.05.21-2.05.71-6.94,1.51-14.8,3.67-22.2.79-2.7,1.82-5.19,3.06-7.4.18-.32.37-.64.56-.95.24-.39.48-.77.78-1.21,2.46-3.61,5.59-6.49,9.58-8.8.21-.12.43-.25.65-.37.53-.29,1.02-.55,1.51-.79.31-.15.62-.3.94-.45.82-.38,1.68-.74,2.57-1.09.11-.34.23-.68.35-1.02.22-.6.45-1.2.7-1.79.41-.97.85-1.9,1.3-2.75.21-.39.43-.78.65-1.15.29-.49.62-1,1-1.56.43-.63.83-1.19,1.24-1.7.27-.35.56-.69.85-1.02.58-.66,1.2-1.31,1.83-1.91.64-.61,1.33-1.19,2.02-1.72.71-.54,1.45-1.05,2.21-1.52.38-.23.77-.46,1.16-.67.79-.43,1.61-.82,2.44-1.17,1.25-.52,2.56-.96,3.91-1.29,2.36-.59,4.87-.89,7.47-.89.8,0,1.62.03,2.44.08,5.96.41,11.43,2.76,15.83,6.81.29.26.57.54.85.82,3.33,3.34,5.91,7.59,7.59,12.47,4.08,1.65,7.61,3.94,10.53,6.84.5.49.99,1.01,1.45,1.55.68.78,1.33,1.6,1.94,2.45.2.28.39.56.58.84.55.83,1.08,1.7,1.56,2.6.61,1.13,1.18,2.33,1.69,3.57.59,1.42,1.12,2.96,1.59,4.55.09.31.18.61.26.92,1.31,4.78,1.96,9.79,2.38,13.63.03.3.06.59.09.89.15,1.45.29,2.91.43,4.32.1,1.07.2,2.11.31,3.14,2.77,1.71,4.98,4.25,6.29,7.33.95,2.23,1.57,5.44,2,10.41.15,1.78.29,3.82.39,6.06.04.95.08,1.87.11,2.71.04,1.1.07,2.09.09,2.88v.3c.04,1.07.07,2.13.07,3.25,0,3.11-.25,7.17-2.07,10.92-1.11,2.28-3.08,5.01-6.54,6.87-.16.48-.32.94-.49,1.38-.37.95-.79,1.89-1.25,2.78-.9,1.74-2,3.4-3.26,4.92-.2.25-.41.49-.63.73-2.73,3.06-6.21,5.62-10.34,7.59-.27.13-.54.25-.81.38-8.49,3.82-18.19,4.62-24.83,4.62h0Z"/>
        <g>
          <path class="cls-1" d="M116.83,101.95c-.14-4.43-.45-15.92-1.98-19.53-1.1-2.59-3.38-4.36-6.17-4.85l-.21-.31c-2.25-17.67-.89-38.72-21.94-44.42-2.03-9.33-8.18-17.67-18.36-18.37-12.42-.85-20.16,6.57-22.5,18.31-9.62,2.87-15.74,7.28-18.63,17.17-2.58,8.83-3.05,18.61-4.15,27.72-4.65.49-6.81,4.23-7.32,8.55-.66,5.57-1,13.49-1.06,19.13-.07,5.46,1.88,10.17,7.49,11.68,1.82,10.09,10.23,16.06,19.59,18.5.45.03,1.99.45,2.29.57l28.61,1.13c14.65.38,34.31-3.2,37-20.44,7.65-1.44,7.53-8.55,7.34-14.85ZM78.53,31.79l-25.18-.13c3.94-13.37,21.53-13.51,25.18.13Z"/>
          <g>
            <path class="cls-2" d="M72.5,137.24c14.65.38,34.31-3.2,37-20.44,7.65-1.44,7.53-8.55,7.34-14.85-.14-4.43-.45-15.92-1.98-19.53-1.1-2.59-3.38-4.36-6.17-4.85l-.21-.31c-2.25-17.67-.89-38.72-21.94-44.42-2.03-9.33-8.18-17.67-18.36-18.37-12.42-.85-20.16,6.57-22.5,18.31-9.62,2.87-15.74,7.28-18.63,17.17-2.58,8.83-3.05,18.61-4.15,27.72-4.65.49-6.81,4.23-7.32,8.55-.66,5.57-1,13.49-1.06,19.13-.06,5.46,1.88,10.17,7.49,11.68,1.82,10.09,10.23,16.06,19.59,18.5.45.03,1.99.45,2.29.57M78.53,31.79l-25.18-.13c3.94-13.37,21.53-13.51,25.18.13ZM43.55,39.7c7.06-3.1,26.01-2.7,34.07-2.15,10.26.71,16.71,2.05,15.86,14.04-.87,12.28-10.08,19.82-22.03,20.33v-6.43c0-.31-.71-1.57-1.06-1.83-1.14-.88-6.94-.92-8.34-.49-.81.25-1.88,1.56-1.88,2.32v6.43c-9.54-.58-18.44-5.29-21.06-15.01-1.61-5.98-2.18-14.31,4.44-17.22ZM91.9,128.45c-8.66,3.39-24.04,3.11-33.45,2.77-19.93-.73-32.67-4.74-31.87-27.43.89-16.6,2.42-33.9,5.78-50.22.53.1.43.56.52.92.77,2.95,1.12,5.76,2.4,8.62,4.26,9.53,15.15,14.33,25.15,14.59-.09,1.28.15,2.69,1.56,3.02,1.22.28,7.26.39,8.24-.16.88-.5,1.18-1.89,1.22-2.84,9.48-.33,18.61-4.14,23.55-12.52,2.24-3.81,2.55-6.45,3.6-10.57.08-.3-.01-.85.39-.79,3.12,12.98,4.06,26.47,5.25,39.74,1.07,13.79,3.27,28.77-12.33,34.88Z"/>
            <path class="cls-2" d="M39.01,93.27c2.45-2.38,6.38-3.55,9.73-3.78,11.95-.82,25.18.37,37.19.34,10.67,2.1,10.8,13,10.16,21.83-1.03,14.42-13.17,15.27-24.77,15.62-5.52.17-12.11.16-17.6-.26-7.47-.58-15.41-2.83-17.68-10.91-.89-3.15-.87-12.25-.51-15.69.26-2.49,1.69-5.42,3.47-7.15ZM47.52,95.61c-3.03.37-5.61,2.08-5.98,5.3-.3,2.68-.29,10.11.12,12.74.97,6.19,7.97,7.29,13.13,7.59,6.57.38,15.45.37,22.03,0,4.52-.25,10.34-1.04,12.43-5.67,1.09-2.42,1.17-11.56.8-14.37-.49-3.76-3.4-5.39-6.92-5.67-11.41-.9-24.07.63-35.61.08Z"/>
          </g>
        </g>
      </g>
    </g>
  </g>
</svg>